<svg height="512" viewBox="0 0 512 512" width="512" xmlns="http://www.w3.org/2000/svg"><g id="Flat"><path d="m64 56h272v312h-272z" fill="#8da662"/><path d="m96 432h176v32h-176z" fill="#633a2c"/><path d="m32 56h272v312h-272z" fill="#96b268"/><g fill="#844e3a"><path d="m168 24h32v32h-32z"/><path d="m16 368h336v32h-336z"/><path d="m136 400-8.73 24-23.27 64h-40l23.27-64 8.73-24z"/><path d="m304 488h-40l-23.27-64-8.73-24h40l8.73 24z"/></g><path d="m56 80h16v16h-16z" fill="#aabf86"/><path d="m56 112h16v64h-16z" fill="#aabf86"/><path d="m96 400h40l-8.73 24h-40z" fill="#784533"/><path d="m280.73 424h-40l-8.73-24h40z" fill="#784533"/><path d="m232 148v164h-120v-164a60 60 0 1 1 120 0z" fill="#7d4935"/><path d="m256 304.98v63.02h-176v-63.02a31.993 31.993 0 0 1 24.24-31.04l27.64-6.91a16 16 0 0 0 12.12-15.52v-35.51h48v8a51.214 51.214 0 0 0 38.81 49.7l.95.24a31.993 31.993 0 0 1 24.24 31.04z" fill="#fdc8a2"/><path d="m194.56 240h-34.56a47.873 47.873 0 0 1 -16-2.73v-21.27h48v8a51.011 51.011 0 0 0 2.56 16z" fill="#fdb683"/><path d="m256 304.98v63.02h-176v-63.02a31.993 31.993 0 0 1 24.24-31.04l7.76-1.94v16a24 24 0 0 0 24 24h72a24 24 0 0 0 24-24v-13.99a31.98 31.98 0 0 1 24 30.97z" fill="#426887"/><path d="m104 336h16v32h-16z" fill="#395d7b"/><path d="m208 336h16v32h-16z" fill="#395d7b"/><path d="m192 120v104h-32a48 48 0 0 1 -48-48v-28a59.62 59.62 0 0 1 6.93-28z" fill="#fdc8a2"/><g fill="#844e3a"><path d="m232 148v126a52.808 52.808 0 0 1 -40-51.231v-102.769h-73.07a60 60 0 0 1 113.07 28z"/><path d="m140 168a12 12 0 1 1 12-12 12.013 12.013 0 0 1 -12 12z"/><path d="m180 168a12 12 0 1 1 12-12 12.013 12.013 0 0 1 -12 12z"/></g><path d="m156.687 197.657h-4.687v-16h4.687a19.187 19.187 0 0 0 13.656-5.657l11.314 11.313a35.083 35.083 0 0 1 -24.97 10.344z" fill="#fcb079"/><path d="m371 272c-69.036 0-125 44.771-125 100s55.964 100 125 100a153.335 153.335 0 0 0 40.349-5.331 25.616 25.616 0 0 0 11.472-42.848l-5.988-5.988a17.679 17.679 0 0 1 -.236-24.759c6.874-7.136 18.558-6.919 25.564.087l.913.913a30.342 30.342 0 0 0 40.879 1.854l1.356-1.13a29.712 29.712 0 0 0 10.691-22.798c0-55.229-55.964-100-125-100zm13 176a16 16 0 1 1 16-16 16 16 0 0 1 -16 16z" fill="#f1ddc1"/><circle cx="424" cy="336" fill="#96b268" r="24"/><circle cx="356" cy="324" fill="#de5540" r="28"/><circle cx="296" cy="352" fill="#4db6e4" r="24"/><circle cx="328" cy="408" fill="#348ed8" r="24"/><path d="m488 40.585v1.6a16.589 16.589 0 0 1 -3.634 10.36l-81.696 102.125-42.67 53.33-32-32 45.33-50.67 85.726-95.8a16.585 16.585 0 0 1 12.359-5.53 16.585 16.585 0 0 1 16.585 16.585z" fill="#844e3a"/><path d="m360 208-12.1 20.16a40.779 40.779 0 0 1 -14.9 14.54 40.2 40.2 0 0 1 -5 2.39 40.857 40.857 0 0 1 -56-37.95v-39.14l14.4 19.2a16 16 0 0 0 22.4 3.2l1.04-.78 18.16-13.62z" fill="#f1ddc1"/><path d="m328 243.31v1.78a40.857 40.857 0 0 1 -56-37.95v-39.14l14.4 19.2a16 16 0 0 0 22.4 3.2l1.04-.78a27.358 27.358 0 0 1 2.16 10.65v4.42a27.318 27.318 0 0 0 8 19.31 27.318 27.318 0 0 1 8 19.31z" fill="#844e3a"/><path d="m402.67 154.67-42.67 53.33-32-32 45.33-50.67z" fill="#ffb431"/></g></svg>