<svg id="Capa_1" enable-background="new 0 0 499.869 499.869" height="512" viewBox="0 0 499.869 499.869" width="512" xmlns="http://www.w3.org/2000/svg"><g><g><path d="m175.237 325.205h-122.941c-15.267 0-27.644-12.377-27.644-27.644v-161.136c0-15.267 12.377-27.644 27.644-27.644h122.94c15.267 0 27.644 12.377 27.644 27.644v161.136c.001 15.267-12.376 27.644-27.643 27.644z" fill="#ffa585"/><path d="m166.96 293.79h-106.387c-2.467 0-4.466-2-4.466-4.466v-144.663c0-2.467 2-4.466 4.466-4.466h106.387c2.467 0 4.466 2 4.466 4.466v144.663c0 2.467-1.999 4.466-4.466 4.466z" fill="#fef2a8"/><path d="m56.107 253.629v35.695c0 2.467 2 4.467 4.467 4.467h106.386c2.467 0 4.467-2 4.467-4.467v-75.857l-50.006 41.458-31.99-26.585z" fill="#bdf4e3"/><path d="m175.237 108.781h-41.473c11.497 0 20.817 9.32 20.817 20.817v126.717c0 11.497-9.32 20.817-20.817 20.817h-88.295c-11.497 0-20.817-9.32-20.817-20.817v41.246c0 15.267 12.377 27.644 27.644 27.644h122.94c15.267 0 27.644-12.376 27.644-27.644v-161.136c.001-15.268-12.376-27.644-27.643-27.644z" fill="#ef7c85"/><path d="m166.96 140.195h-12.379v116.12c0 11.497-9.32 20.817-20.817 20.817h-77.657v12.192c0 2.467 2 4.467 4.467 4.467h106.386c2.467 0 4.467-2 4.467-4.467v-144.662c-.001-2.467-2-4.467-4.467-4.467z" fill="#eeb6a8"/><path d="m154.581 256.315c0 11.497-9.32 20.817-20.817 20.817h-77.657v12.192c0 2.467 2 4.467 4.467 4.467h106.386c2.467 0 4.467-2 4.467-4.467v-75.857l-16.845 13.966v28.882z" fill="#b1b7e3"/><ellipse cx="351.924" cy="245.001" fill="#8bb6ef" rx="69.293" ry="82.511"/><ellipse cx="351.924" cy="245.001" fill="#f7c4db" rx="39.663" ry="51.66"/><path d="m312.293 258.167c-.013.542 9.551 38.495 39.631 38.495s39.644-37.953 39.631-38.495c-27.375-21.606-53.768-20.976-79.262 0z" fill="#ef8bbd"/><path d="m351.924 162.49c-3.127 0-6.204.251-9.221.729 24.962 4.582 44.076 30.271 44.076 61.278 0 34.245-23.314 62.007-52.074 62.007-26.039 0-47.614-22.759-51.462-52.483-.401 3.593-.612 7.257-.612 10.98 0 45.57 31.024 82.511 69.293 82.511 38.27 0 69.293-36.941 69.293-82.511.001-45.57-31.023-82.511-69.293-82.511z" fill="#8388ef"/><path d="m386.779 224.497c0 34.245-23.314 62.007-52.074 62.007-2.357 0-4.676-.192-6.949-.554 6.692 6.711 15.07 10.711 24.169 10.711 21.905 0 39.663-23.129 39.663-51.661 0-9.075-1.802-17.598-4.957-25.01.089 1.491.148 2.99.148 4.507z" fill="#e893db"/><path d="m334.705 286.504c-2.49 0-4.938-.211-7.334-.614 5.975 6.091 13.997 10.772 24.553 10.772 30.08 0 39.644-37.953 39.631-38.495-3.31-2.612-6.604-4.892-9.885-6.857-8.398 20.82-26.271 35.194-46.965 35.194z" fill="#e068bd"/><path d="m351.089 499.869h-114.753c-13.299 0-24.08-10.781-24.08-24.08v-68.556c0-13.299 10.781-24.08 24.08-24.08h114.753c13.299 0 24.08 10.781 24.08 24.08v68.556c0 13.299-10.781 24.08-24.08 24.08z" fill="#ffe266"/><path d="m351.089 383.152h-23.52c10.619 0 19.227 8.608 19.227 19.227v51.647c0 10.619-8.608 19.227-19.227 19.227h-96.087c-10.619 0-19.227-8.608-19.227-19.227v21.762c0 13.299 10.781 24.08 24.08 24.08h114.753c13.299 0 24.08-10.781 24.08-24.08v-68.556c.001-13.299-10.78-24.08-24.079-24.08z" fill="#efaa66"/><path d="m341.082 471.999h-94.739c-3.156 0-5.715-2.559-5.715-5.715v-49.549c0-3.156 2.559-5.715 5.715-5.715h94.739c3.156 0 5.715 2.559 5.715 5.715v49.549c0 3.157-2.559 5.715-5.715 5.715z" fill="#b2e7f1"/><path d="m240.628 411.021h29.998v60.978h-29.998z" fill="#78eac4"/><path d="m346.797 439.515h-76.17v-28.494h72.464c2.047 0 3.706 1.659 3.706 3.706z" fill="#ef8bbd"/><path d="m100.254 493.131h-54.967c-10.882 0-19.704-8.822-19.704-19.704v-54.967c0-10.882 8.822-19.704 19.704-19.704h54.967c10.882 0 19.704 8.822 19.704 19.704v54.967c0 10.882-8.822 19.704-19.704 19.704z" fill="#ef8bbd"/><path d="m100.254 398.756h-16.72c8.445 0 15.292 6.847 15.292 15.292v42.659c0 8.445-6.846 15.292-15.292 15.292h-42.66c-8.445 0-15.292-6.847-15.292-15.292v16.719c0 10.882 8.822 19.704 19.704 19.704h54.967c10.882 0 19.704-8.822 19.704-19.704v-54.966c.001-10.882-8.821-19.704-19.703-19.704z" fill="#e068bd"/><path d="m93.795 468.009h-42.05c-.574 0-1.04-.466-1.04-1.04v-42.05c0-.574.466-1.04 1.04-1.04h42.05c.574 0 1.04.466 1.04 1.04v42.05c0 .574-.465 1.04-1.04 1.04z" fill="#bdf4e3"/><circle cx="104.027" cy="181.585" fill="#ffe266" r="15.931"/><g><path d="m240.627 417.021c-1.459 0-2.922-.529-4.076-1.598l-17.693-16.39c-2.432-2.252-2.576-6.048-.324-8.479 2.25-2.432 6.048-2.576 8.479-.325l17.693 16.39c2.432 2.252 2.576 6.048.324 8.479-1.182 1.277-2.791 1.923-4.403 1.923z" fill="#d0844b"/></g><g><path d="m365.239 495.083c-1.459 0-2.922-.529-4.076-1.598l-18.443-17.084c-2.432-2.252-2.576-6.048-.324-8.479 2.251-2.431 6.048-2.577 8.478-.325l18.443 17.084c2.432 2.252 2.576 6.048.324 8.479-1.181 1.277-2.789 1.923-4.402 1.923z" fill="#d0844b"/></g><g><path d="m346.798 417.021c-1.612 0-3.22-.646-4.402-1.922-2.252-2.431-2.108-6.228.324-8.48l17.588-16.292c2.43-2.252 6.226-2.108 8.478.324 2.252 2.431 2.107 6.228-.324 8.48l-17.588 16.292c-1.154 1.07-2.617 1.598-4.076 1.598z" fill="#d0844b"/></g><g><path d="m222.15 495.117c-1.612 0-3.221-.646-4.402-1.923-2.252-2.431-2.107-6.227.324-8.479l18.48-17.118c2.429-2.252 6.227-2.108 8.479.325 2.252 2.431 2.107 6.227-.324 8.479l-18.479 17.118c-1.157 1.069-2.619 1.598-4.078 1.598z" fill="#d0844b"/></g></g><path d="m277.089 38.15 8.215 23.098c.352.989 1.048 1.773 1.926 2.168l20.521 9.246c2.899 1.306 2.899 5.925 0 7.232l-20.521 9.246c-.878.396-1.575 1.179-1.926 2.168l-8.215 23.098c-1.16 3.263-5.264 3.263-6.425 0l-8.214-23.098c-.352-.989-1.048-1.773-1.927-2.168l-20.521-9.246c-2.899-1.306-2.899-5.925 0-7.232l20.521-9.246c.879-.396 1.575-1.18 1.927-2.168l8.214-23.098c1.16-3.263 5.264-3.263 6.425 0z" fill="#efc5b4"/><path d="m423.601 1.815 6.093 17.133c.261.734.777 1.315 1.429 1.609l15.222 6.858c2.151.969 2.151 4.395 0 5.364l-15.222 6.858c-.652.294-1.168.875-1.429 1.609l-6.093 17.133c-.861 2.421-3.905 2.421-4.766 0l-6.093-17.133c-.261-.734-.777-1.315-1.429-1.609l-15.223-6.857c-2.15-.969-2.15-4.395 0-5.364l15.222-6.858c.652-.294 1.168-.875 1.429-1.609l6.093-17.133c.862-2.421 3.906-2.421 4.767-.001z" fill="#efc5b4"/><g fill="#ffa585"><ellipse cx="457.28" cy="119.574" rx="17.937" ry="17.937" transform="matrix(.23 -.973 .973 .23 235.844 537.148)"/><circle cx="145.538" cy="35.368" r="7.737"/></g></g></svg>