<svg id="Capa_1" enable-background="new 0 0 512 512" height="512" viewBox="0 0 512 512" width="512" xmlns="http://www.w3.org/2000/svg"><g><path d="m496.925 201.866h-53.543v14.985l26.772 7.492 26.771-7.492z" fill="#bcddfe"/><path d="m443.382 216.851h53.543v14.985h-53.543z" fill="#acd1fe"/><g><path d="m88.755 129.942c-19.341 3.244-37.071 12.823-50.462 27.431-14.92 16.276-23.156 37.391-23.213 59.478l73.675 29.199z" fill="#fb6867"/><path d="m15.08 216.851c0 .077-.005.154-.005.231 0 22.171 8.246 43.376 23.218 59.709 13.391 14.608 31.121 24.187 50.462 27.431v-87.371z" fill="#e2336c"/></g><g><path d="m354.86 512h-91.188l48.215-175.01h91.188z" fill="#537983"/></g><g><path d="m417.829 366.96h-130.081v-89.07h130.081z" fill="#acd1fe"/></g><g><path d="m108.673 71.511-.231 145.34 48.326 29.199 56.462-29.199-18.144-102.078c-32.609-4.611-62.717-19.565-86.413-43.262z" fill="#edf6ff"/><path d="m108.21 362.653c23.809-23.809 54.09-38.79 86.875-43.325l18.144-102.478h-104.787z" fill="#d7e9fe"/><path d="m458.367 166.043-194.04-49.739h-.159l-18.572 100.547 113.751 20.576 99.02-20.576z" fill="#edf6ff"/><path d="m245.596 216.851 18.572 101.008h153.834l40.365-40.363v-60.645z" fill="#d7e9fe"/></g><path d="m216.821 116.304c-7.339 0-14.596-.522-21.736-1.531v102.078l34.542 20.576 34.542-20.576v-100.547z" fill="#9ffcfe"/><path d="m82.63 42.596v174.255l14.984 20.576 14.985-20.576v-174.255z" fill="#d7e9fe"/><path d="m195.085 319.328c6.991-.967 14.094-1.469 21.274-1.469h47.809v-101.008h-69.083z" fill="#7be2f6"/><path d="m82.63 216.851h29.969v174.255h-29.969z" fill="#bcddfe"/><g><path d="m372.353 14.575c-51.75 0-93.851 42.101-93.851 93.851s42.101 93.851 93.851 93.851l7.076-84.982z" fill="#ffef9d"/><path d="m466.204 108.425c0-51.75-42.101-93.851-93.851-93.851v187.702c51.75 0 93.851-42.101 93.851-93.851z" fill="#fddf5b"/><path d="m358.515 58.072 4.591 67.68h9.247l6.854-30.35-6.854-37.33z" fill="#fb6867"/><path d="m372.353 186.823c-43.229 0-78.397-35.169-78.397-78.398s35.169-78.397 78.397-78.397l13.708-15.453-13.708-14.575c-59.786 0-108.425 48.639-108.425 108.425s48.639 108.425 108.425 108.425l13.708-14.575z" fill="#fddf5b"/><path d="m480.779 108.425c0-59.786-48.64-108.425-108.426-108.425v30.028c43.229 0 78.398 35.169 78.398 78.397 0 43.229-35.169 78.397-78.398 78.398v30.028c59.786 0 108.426-48.64 108.426-108.426z" fill="#fbc551"/><path d="m386.061 58.072h-13.708v67.68h9.117z" fill="#e2336c"/><g><path d="m359.026 149.593c0 7.36 5.967 13.327 13.327 13.327l4.387-13.327-4.387-13.327c-7.36 0-13.327 5.967-13.327 13.327z" fill="#fb6867"/><path d="m385.68 149.593c0-7.36-5.967-13.327-13.327-13.327v26.654c7.361.001 13.327-5.966 13.327-13.327z" fill="#e2336c"/></g></g></g></svg>