<svg id="Capa_1" enable-background="new 0 0 512 512" height="512" viewBox="0 0 512 512" width="512" xmlns="http://www.w3.org/2000/svg"><g><g><path d="m93.554 0c-5.69 0-10.302 4.612-10.302 10.302v460.072c0 22.989-18.637 41.626-41.626 41.626h333.008c22.989 0 41.626-18.637 41.626-41.626v-460.072c0-5.69-4.612-10.302-10.302-10.302z" fill="#e4f6ff"/></g><g><path d="m93.554 0c-5.69 0-10.302 4.612-10.302 10.302v460.072c0 22.989-18.637 41.626-41.626 41.626h333.008c22.989 0 41.626-18.637 41.626-41.626v-460.072c0-5.69-4.612-10.302-10.302-10.302z" fill="#e4f6ff"/></g><g><path d="m372.553 366.309h-245.594c-5.747 0-10.407 4.659-10.407 10.407v91.577c0 5.747 4.659 10.406 10.407 10.406h245.594c5.747 0 10.406-4.659 10.406-10.406v-91.577c0-5.748-4.659-10.407-10.406-10.407z" fill="#a2f4c1"/></g><g><path d="m391.285 0v470.374c0 22.989-18.637 41.626-41.626 41.626h24.976c22.989 0 41.626-18.637 41.626-41.626v-460.072c-.001-5.69-4.613-10.302-10.303-10.302z" fill="#b9e4ef"/></g><g><path d="m83.252 470.374c0 22.718-18.2 41.186-40.814 41.618-23.337.447-42.438-19.1-42.438-42.44v-363.405c0-11.495 9.318-20.813 20.813-20.813h62.439z" fill="#b9e4ef"/></g><g><path d="m20.813 85.333c11.495 0 20.813 9.318 20.813 20.813v318.544c0 5.69 4.612 10.302 10.302 10.302h31.324v-349.659z" fill="#93d8e4"/></g><g><path d="m491.187 33.301h-214.374c-11.495 0-20.813 9.318-20.813 20.813v203.967c0 11.495 9.318 20.813 20.813 20.813h8.388c3.414 0 6.181 2.767 6.181 6.181v26.89c0 5.158 5.944 8.047 10 4.86l45.475-35.73c1.815-1.426 4.056-2.201 6.365-2.201h137.965c11.495 0 20.813-9.318 20.813-20.813v-203.967c0-11.495-9.318-20.813-20.813-20.813z" fill="#80b4fb"/></g><g><g><g><path d="m330.927 181.073h-24.976c-9.196 0-16.65-7.455-16.65-16.65v-49.951c0-9.196 7.455-16.65 16.65-16.65h24.976z" fill="#e278b1"/></g><g><path d="m342.529 245.593h-14.599c-4.924 0-9.174-3.451-10.185-8.271l-11.794-56.249h33.301l11.425 54.487c1.084 5.173-2.863 10.033-8.148 10.033z" fill="#dd5ca2"/></g><g><path d="m330.927 97.821v83.252l101.459 27.671c6.553 1.787 13.012-3.146 13.012-9.939v-118.716c0-6.793-6.459-11.726-13.012-9.939z" fill="#ffe07d"/></g><g><path d="m471.47 162.519-26.072 8.147v-62.439l26.072 8.147c4.301 1.344 7.229 5.327 7.229 9.833v26.478c0 4.507-2.928 8.49-7.229 9.834z" fill="#e278b1"/></g></g></g><g><path d="m220.019 166.504h-100.786c-5.747 0-10.407-4.659-10.407-10.406v-112.391c0-5.747 4.659-10.407 10.407-10.407h100.786c5.747 0 10.407 4.659 10.407 10.407v112.39c0 5.748-4.66 10.407-10.407 10.407z" fill="#845caf"/></g><g><path d="m222.699 207.531h-106.146c-4.267 0-7.726-3.459-7.726-7.726s3.459-7.726 7.726-7.726h106.146c4.267 0 7.726 3.459 7.726 7.726s-3.459 7.726-7.726 7.726z" fill="#93d8e4"/></g><g><path d="m222.699 240.832h-106.146c-4.267 0-7.726-3.459-7.726-7.726s3.459-7.726 7.726-7.726h106.146c4.267 0 7.726 3.459 7.726 7.726s-3.459 7.726-7.726 7.726z" fill="#93d8e4"/></g><g><path d="m222.699 274.133h-106.146c-4.267 0-7.726-3.459-7.726-7.726s3.459-7.726 7.726-7.726h106.146c4.267 0 7.726 3.459 7.726 7.726s-3.459 7.726-7.726 7.726z" fill="#93d8e4"/></g><g><path d="m222.699 307.434h-106.146c-4.267 0-7.726-3.459-7.726-7.726s3.459-7.726 7.726-7.726h106.146c4.267 0 7.726 3.459 7.726 7.726s-3.459 7.726-7.726 7.726z" fill="#93d8e4"/></g><g><path d="m191.48 340.734h-74.927c-4.267 0-7.726-3.459-7.726-7.726s3.459-7.726 7.726-7.726h74.927c4.267 0 7.726 3.459 7.726 7.726s-3.459 7.726-7.726 7.726z" fill="#93d8e4"/></g></g></svg>