<?xml version="1.0" encoding="iso-8859-1"?>
<!-- Generator: Adobe Illustrator 19.0.0, SVG Export Plug-In . SVG Version: 6.00 Build 0)  -->
<svg version="1.1" id="Capa_1" xmlns="http://www.w3.org/2000/svg" xmlns:xlink="http://www.w3.org/1999/xlink" x="0px" y="0px"
	 viewBox="0 0 512 512" style="enable-background:new 0 0 512 512;" xml:space="preserve">
<path style="fill:#FEC007;" d="M512,304.588c0,99.397-80.573,179.97-179.97,179.97s-179.97-80.573-179.97-179.97
	c0-16.717,2.281-32.905,6.544-48.255c6.429-23.156,17.362-44.425,31.798-62.807c32.953-41.961,84.143-68.908,141.628-68.908
	C431.427,124.618,512,205.191,512,304.588z"/>
<path style="fill:#FE9700;" d="M190.402,193.526v40.565c0,12.261-9.971,22.241-22.241,22.241h-9.557
	C165.033,233.177,175.966,211.908,190.402,193.526z"/>
<g>
	<path style="fill:#FCE790;" d="M489.466,312.315c-4.267,0-7.726-3.459-7.726-7.726c0-82.55-67.159-149.709-149.709-149.709
		c-4.267,0-7.726-3.459-7.726-7.726s3.459-7.726,7.726-7.726c91.07,0,165.162,74.092,165.162,165.162
		C497.192,308.856,493.733,312.315,489.466,312.315z"/>
	<path style="fill:#FCE790;" d="M332.03,469.751c-91.07,0-165.162-74.092-165.162-165.162c0-4.268,3.459-7.726,7.726-7.726
		s7.726,3.459,7.726,7.726c0,82.55,67.159,149.709,149.709,149.709c4.267,0,7.726,3.459,7.726,7.726S336.297,469.751,332.03,469.751
		z"/>
</g>
<circle style="fill:#FE9700;" cx="332.03" cy="304.59" r="123.38"/>
<circle style="fill:#FCE790;" cx="332.03" cy="304.59" r="102.14"/>
<g>
	<path style="fill:#FE9700;" d="M332.03,356.323c-19.988,0-36.25-13.337-36.25-29.73c0-4.268,3.459-7.726,7.726-7.726
		s7.726,3.459,7.726,7.726c0,7.739,9.524,14.278,20.797,14.278c10.901,0,20.167-6.114,20.767-13.515
		c-2.608-3.778-16.26-11.401-24.534-16.021c-20.745-11.585-32.482-18.632-32.482-28.749c0-16.393,16.262-29.73,36.25-29.73
		s36.25,13.337,36.25,29.73c0,4.268-3.459,7.726-7.726,7.726s-7.726-3.459-7.726-7.726c0-7.739-9.524-14.278-20.797-14.278
		c-10.901,0-20.167,6.114-20.767,13.515c2.608,3.777,16.259,11.399,24.533,16.02c20.746,11.585,32.484,18.632,32.484,28.75
		C368.28,342.986,352.019,356.323,332.03,356.323z"/>
	<path style="fill:#FE9700;" d="M332.03,369.362c-4.267,0-7.726-3.459-7.726-7.726V247.542c0-4.268,3.459-7.726,7.726-7.726
		s7.726,3.459,7.726,7.726v114.095C339.757,365.904,336.297,369.362,332.03,369.362z"/>
</g>
<g>
	<path style="fill:#8AE46D;" d="M217.032,131.575L115.185,29.728c-3.048-3.048-7.989-3.048-11.036,0L2.301,131.575
		c-4.916,4.916-1.434,13.322,5.518,13.322h35.544v89.191c0,4.31,3.494,7.804,7.804,7.804h116.999c4.31,0,7.804-3.494,7.804-7.804
		v-89.191h35.544C218.466,144.897,221.948,136.491,217.032,131.575z"/>
	<path style="fill:#8AE46D;" d="M85.879,322.754c-4.267,0-7.726-3.459-7.726-7.726V266.71c0-4.268,3.459-7.726,7.726-7.726
		s7.726,3.459,7.726,7.726v48.318C93.606,319.295,90.146,322.754,85.879,322.754z"/>
	<path style="fill:#8AE46D;" d="M109.666,367.384c-4.267,0-7.726-3.459-7.726-7.726V266.71c0-4.268,3.459-7.726,7.726-7.726
		s7.726,3.459,7.726,7.726v92.948C117.393,363.925,113.934,367.384,109.666,367.384z"/>
	<path style="fill:#8AE46D;" d="M133.454,322.754c-4.267,0-7.726-3.459-7.726-7.726V266.71c0-4.268,3.459-7.726,7.726-7.726
		s7.726,3.459,7.726,7.726v48.318C141.181,319.295,137.721,322.754,133.454,322.754z"/>
</g>
<g>
</g>
<g>
</g>
<g>
</g>
<g>
</g>
<g>
</g>
<g>
</g>
<g>
</g>
<g>
</g>
<g>
</g>
<g>
</g>
<g>
</g>
<g>
</g>
<g>
</g>
<g>
</g>
<g>
</g>
</svg>
