<svg id="Capa_1" enable-background="new 0 0 510 510" height="512" viewBox="0 0 510 510" width="512" xmlns="http://www.w3.org/2000/svg"><g id="XMLID_4741_"><path id="XMLID_4858_" d="m30 180v241c0 49.073 39.924 89 89 89h16l30-19 30 19h60l22.5-142.5-22.5-142.5z" fill="#516992"/><path id="XMLID_1038_" d="m480 225c-10.492 0-19.508 0-30 0l-105-23.667-90 23.667v285h112.5 112.5v-105l-30-45 30-45z" fill="#344f79"/><path id="XMLID_4977_" d="m240 87.425v47.575l7.5 15 7.5-15 6.25-22.5-6.25-22.5-7.5-15z" fill="#e0dde8"/><path id="XMLID_4975_" d="m270 87.424-7.5-12.424-7.5 15v45l7.5 15 7.5-15c0-15.305 0-32.874 0-47.576z" fill="#ceccdb"/><path id="XMLID_4968_" d="m330 135 15 15 15-15c0-32.173 0-39.843 0-75h32.578l12.422-15-12.422-15c-15.355 0-52.382 0-62.578 0z" fill="#ceccdb"/><path id="XMLID_4933_" d="m180 135-15 15-15-15c0-32.173 0-39.843 0-75-6.422 0-26.162 0-32.576 0l-12.424-15 12.42-15h62.58z" fill="#e0dde8"/><path id="XMLID_4967_" d="m210 45c0 24.812 20.186 45 45 45l10.5-45-10.5-45c-24.812 0-45 20.187-45 45z" fill="#98e53b"/><path id="XMLID_4932_" d="m300 45c0-24.812-20.185-45-45-45v45 45c24.812 0 45-20.186 45-45z" fill="#27d072"/><circle id="XMLID_4888_" cx="435" cy="45" fill="#ff4a4a" r="45"/><path id="XMLID_4974_" d="m75 90c-24.812 0-45-20.187-45-45 0-24.812 20.187-45 45-45 24.812 0 45 20.187 45 45 0 24.812-20.187 45-45 45z" fill="#ffd92e"/><path id="XMLID_4875_" d="m75 135c-24.812 0-45 20.187-45 45 0 19.571 12.569 36.25 30.006 42.431l89.994-18.431 105 21 15-45-15-45z" fill="#344f79"/><path id="XMLID_4863_" d="m450 135h-195v90l86.667-17.667 78.333 17.667h30z" fill="#1e3860"/><path id="XMLID_1035_" d="m375 360c9.533 14.299 20.467 30.701 30 45h75v-90c-20.194 0-63.236 0-75 0-9.533 14.299-20.467 30.701-30 45z" fill="#fcbe00"/><path id="XMLID_4736_" d="m195 225-30-14.333-30 14.333v285h60c0-15.815 0-269.185 0-285z" fill="#ffd92e"/><path id="XMLID_4862_" d="m75 165c-8.271 0-15 6.729-15 15v42.417c4.695 1.665 9.741 2.583 15 2.583h180l12.333-30-12.333-30z" fill="#98e53b"/><path id="XMLID_655_" d="m420 165h-165v60h165c0-20.885 0-39.115 0-60z" fill="#27d072"/></g></svg>